<?xml version="1.0" encoding="UTF-8" standalone="no"?>
<!DOCTYPE svg PUBLIC "-//W3C//DTD SVG 1.1//EN"
 "http://www.w3.org/Graphics/SVG/1.1/DTD/svg11.dtd">
<!-- Generated by graphviz version 2.40.1 (20161225.0304)
 -->
<!-- Title: Squall Pages: 1 -->
<svg width="248pt" height="249pt"
 viewBox="0.00 0.00 248.00 249.00" xmlns="http://www.w3.org/2000/svg" xmlns:xlink="http://www.w3.org/1999/xlink">
<g id="graph0" class="graph" transform="scale(1 1) rotate(0) translate(4 245)">
<title>Squall</title>
<polygon fill="#ffffff" stroke="transparent" points="-4,4 -4,-245 244,-245 244,4 -4,4"/>
<!-- entries -->
<g id="node1" class="node">
<title>entries</title>
<polygon fill="#efefef" stroke="transparent" points="43,-162.5 43,-197.5 197,-197.5 197,-162.5 43,-162.5"/>
<polygon fill="none" stroke="#000000" points="43,-162.5 43,-197.5 197,-197.5 197,-162.5 43,-162.5"/>
<text text-anchor="start" x="56.8309" y="-175.3" font-family="Arial Bold" font-size="18.00" fill="#000000">entries</text>
<text text-anchor="start" x="110.8381" y="-175.3" font-family="Arial" font-size="14.00" fill="#000000">    </text>
<text text-anchor="start" x="145.0429" y="-175.3" font-family="Arial" font-size="14.00" fill="#666666">[table]</text>
<polygon fill="none" stroke="#000000" points="43,-132.5 43,-162.5 197,-162.5 197,-132.5 43,-132.5"/>
<text text-anchor="start" x="50" y="-143.9" font-family="Arial" font-size="14.00" fill="#000000">id    </text>
<text text-anchor="start" x="95.094" y="-143.9" font-family="Arial" font-size="14.00" fill="#666666">[INTEGER]</text>
<polygon fill="none" stroke="#000000" points="43,-102.5 43,-132.5 197,-132.5 197,-102.5 43,-102.5"/>
<text text-anchor="start" x="49.6094" y="-113.9" font-family="Arial" font-size="14.00" fill="#000000">is_done    </text>
<text text-anchor="start" x="132.8338" y="-113.9" font-family="Arial" font-size="14.00" fill="#666666">[numeric]</text>
<polygon fill="none" stroke="#000000" points="43,-72.5 43,-102.5 197,-102.5 197,-72.5 43,-72.5"/>
<text text-anchor="start" x="50" y="-83.9" font-family="Arial" font-size="14.00" fill="#000000">title    </text>
<text text-anchor="start" x="105.9818" y="-83.9" font-family="Arial" font-size="14.00" fill="#666666">[TEXT]</text>
<polygon fill="none" stroke="#000000" points="43,-42.5 43,-72.5 197,-72.5 197,-42.5 43,-42.5"/>
<text text-anchor="start" x="50" y="-53.9" font-family="Arial" font-size="14.00" fill="#000000">url    </text>
<text text-anchor="start" x="99.7546" y="-53.9" font-family="Arial" font-size="14.00" fill="#666666">[TEXT]</text>
</g>
</g>
</svg>
